<svg class="h-6 w-6" stroke="currentColor" version="1.1" id="Layer_1" xmlns="http://www.w3.org/2000/svg" xmlns:xlink="http://www.w3.org/1999/xlink" x="0px" y="0px" width="24" viewBox="0 0 24 24" enable-background="new 0 0 508 512" xml:space="preserve" height="24.189"><path fill="#F6F6F6" opacity="1.000000" stroke="none" d="M0.065 23.718C0.047 15.894 0.048 8.072 0.043 0.25 0.043 0.086 0.069 0.042 0.246 0.042 3.929 0.049 7.611 0.047 11.316 0.047c-0.045 0.173 -0.212 0.132 -0.336 0.149 -0.698 0.095 -1.379 0.255 -2.034 0.511 -2.461 0.962 -3.979 2.715 -4.436 5.342 -0.034 0.193 -0.118 0.299 -0.32 0.304 -0.219 0.005 -0.417 0.08 -0.599 0.197 -0.347 0.223 -0.548 0.528 -0.547 0.957 0.004 1.362 0.017 2.724 -0.005 4.086 -0.012 0.722 0.583 1.215 1.176 1.229 0.54 0.013 0.465 0.032 0.656 0.49 0.597 1.435 1.609 2.403 3.162 2.741 0.195 0.042 0.392 0.033 0.588 0.035 0.129 0.002 0.249 0.018 0.345 0.119 0.564 0.597 1.29 0.683 2.048 0.61 0.451 -0.043 0.874 -0.197 1.236 -0.489 0.439 -0.354 0.46 -0.823 0.05 -1.212 -0.341 -0.324 -0.768 -0.465 -1.217 -0.524 -0.446 -0.058 -0.896 -0.041 -1.332 0.098 -0.276 0.088 -0.518 0.231 -0.715 0.442 -0.133 0.143 -0.291 0.196 -0.485 0.197 -0.522 0.004 -0.994 -0.156 -1.427 -0.43 -0.78 -0.492 -1.333 -1.166 -1.614 -2.053 -0.07 -0.22 -0.101 -0.443 -0.1 -0.674 0.003 -1.835 0.013 -3.669 -0.003 -5.504 -0.009 -0.94 0.288 -1.78 0.756 -2.57 0.924 -1.559 2.347 -2.411 4.068 -2.833 0.592 -0.145 1.195 -0.237 1.798 -0.241 2.555 -0.018 4.589 0.938 5.889 3.229 0.273 0.482 0.487 0.988 0.675 1.506 0.081 0.224 0.111 0.451 0.1 0.694 -0.024 0.527 -0.008 1.055 -0.008 1.582 -0.001 1.488 -0.001 2.976 0 4.464 0 0.312 0.011 0.323 0.314 0.324 0.283 0.001 0.567 0.011 0.85 -0.003 0.454 -0.022 0.813 -0.22 1.062 -0.607 0.096 -0.15 0.14 -0.313 0.14 -0.492 -0.001 -1.425 0.002 -2.85 -0.003 -4.275 -0.002 -0.526 -0.428 -0.999 -1.008 -1.076 -0.27 -0.036 -0.371 -0.158 -0.436 -0.401 -0.333 -1.257 -0.892 -2.4 -1.737 -3.399C16.858 1.383 15.589 0.633 14.065 0.309c-0.285 -0.061 -0.573 -0.106 -0.862 -0.144 -0.077 -0.01 -0.159 -0.007 -0.212 -0.099C16.604 0.047 20.216 0.05 23.828 0.041c0.202 0 0.224 0.054 0.224 0.235 -0.005 7.184 -0.005 14.369 -0.005 21.575 -0.13 0.01 -0.099 -0.098 -0.111 -0.174 -0.045 -0.28 -0.079 -0.561 -0.167 -0.832 -0.137 -0.423 -0.401 -0.741 -0.779 -0.972 -0.366 -0.223 -0.764 -0.372 -1.167 -0.506 -1.211 -0.403 -2.399 -0.863 -3.532 -1.456a15.354 15.354 0 0 1 -0.943 -0.537c-0.234 -0.145 -0.26 -0.14 -0.354 0.107 -0.659 1.736 -1.321 3.471 -1.978 5.208 -0.161 0.427 -0.322 0.854 -0.487 1.28 -0.034 0.088 -0.063 0.179 -0.154 0.254 -0.297 0.013 -0.581 0.013 -0.888 0.013 -0.117 -0.073 -0.148 -0.179 -0.166 -0.288 -0.161 -0.97 -0.371 -1.931 -0.541 -2.899 -0.012 -0.07 -0.026 -0.139 -0.032 -0.21 -0.018 -0.219 0.037 -0.285 0.252 -0.31 0.539 -0.061 0.672 -0.209 0.675 -0.756 0.001 -0.228 0.009 -0.457 -0.004 -0.684 -0.02 -0.358 -0.225 -0.577 -0.581 -0.585a44.929 44.929 0 0 0 -2.077 0c-0.368 0.008 -0.574 0.229 -0.591 0.601 -0.012 0.259 -0.009 0.519 -0.001 0.779 0.013 0.437 0.198 0.619 0.641 0.642 0.304 0.016 0.351 0.062 0.292 0.36 -0.205 1.042 -0.428 2.08 -0.62 3.124 -0.013 0.07 -0.031 0.139 -0.091 0.21 -0.297 0.016 -0.582 0.016 -0.888 0.016 -0.146 -0.141 -0.181 -0.323 -0.245 -0.49 -0.768 -2.006 -1.535 -4.012 -2.302 -6.018 -0.065 -0.169 -0.133 -0.174 -0.274 -0.086 -1.589 0.981 -3.312 1.669 -5.05 2.329 -0.323 0.123 -0.64 0.26 -0.939 0.438 -0.457 0.271 -0.638 0.684 -0.691 1.192 -0.066 0.627 -0.011 1.258 -0.092 1.883 -0.011 0.084 0.006 0.176 -0.095 0.235" stroke-width="0.047244094488188976"/><path fill="#1B1B1B" opacity="1.000000" stroke="none" d="M12.97 0.047c0.338 0.11 0.675 0.111 1 0.175 1.959 0.386 3.449 1.451 4.539 3.101 0.558 0.845 0.944 1.768 1.19 2.749 0.035 0.14 0.085 0.202 0.243 0.212 0.586 0.038 1.208 0.552 1.194 1.278 -0.027 1.346 -0.029 2.693 0.001 4.038 0.016 0.733 -0.62 1.262 -1.237 1.293 -0.369 0.018 -0.74 -0.002 -1.11 0.007 -0.131 0.003 -0.155 -0.047 -0.154 -0.164 0.006 -2.149 0.008 -4.298 0.014 -6.447 0 -0.139 -0.051 -0.259 -0.09 -0.384 -0.476 -1.499 -1.273 -2.778 -2.563 -3.714 -0.875 -0.635 -1.877 -0.936 -2.937 -1.046 -1.576 -0.164 -3.097 0.075 -4.504 0.808 -1.767 0.921 -2.848 2.381 -3.071 4.378 -0.098 0.872 -0.024 1.764 -0.025 2.647 0 0.969 0.027 1.938 0.001 2.905 -0.032 1.195 0.536 2.068 1.422 2.776 0.517 0.413 1.113 0.642 1.79 0.604 0.076 -0.004 0.154 0.017 0.213 -0.063 0.324 -0.434 0.792 -0.605 1.302 -0.672 0.688 -0.091 1.348 -0.007 1.947 0.376a1.654 1.654 0 0 1 0.224 0.172c0.423 0.386 0.424 0.895 -0.017 1.262 -0.583 0.485 -1.272 0.625 -2.011 0.554 -0.554 -0.053 -1.065 -0.209 -1.429 -0.669 -0.055 -0.07 -0.121 -0.065 -0.189 -0.061 -1.834 0.1 -3.535 -1.486 -3.993 -3.071 -0.046 -0.16 -0.116 -0.208 -0.275 -0.197 -0.504 0.036 -0.925 -0.137 -1.244 -0.537 -0.152 -0.19 -0.231 -0.406 -0.231 -0.652 0.001 -1.417 -0.003 -2.834 0.002 -4.251 0.002 -0.573 0.514 -1.12 1.127 -1.162 0.262 -0.018 0.316 -0.097 0.357 -0.347 0.277 -1.689 1.098 -3.075 2.421 -4.157 1.086 -0.888 2.359 -1.353 3.723 -1.598 0.239 -0.043 0.481 -0.072 0.729 -0.125C11.875 0.047 12.411 0.047 12.97 0.047" stroke-width="0.047244094488188976"/><path fill="#1A1A1A" opacity="1.000000" stroke="none" d="M14.384 24.236c0.419 -1.172 0.857 -2.344 1.301 -3.514 0.433 -1.142 0.871 -2.282 1.307 -3.422 0.022 -0.058 0.047 -0.115 0.076 -0.184 1.082 0.705 2.232 1.253 3.428 1.705 0.63 0.238 1.263 0.468 1.901 0.684 1.039 0.352 1.56 1.078 1.6 2.164 0.002 0.063 0.01 0.125 0.033 0.196 0.018 0.199 0.018 0.389 0.018 0.601 -0.054 0.395 -0.012 0.769 -0.023 1.143 -0.006 0.195 0.003 0.391 -0.014 0.607 -3.208 0.02 -6.406 0.02 -9.626 0.02" stroke-width="0.047244094488188976"/><path fill="#1A1A1A" opacity="1.000000" stroke="none" d="M0.047 23.737c0.102 -0.296 0.063 -0.586 0.08 -0.869 0.03 -0.502 0.017 -1.005 0.088 -1.505 0.077 -0.532 0.39 -0.87 0.852 -1.105 0.798 -0.405 1.653 -0.669 2.475 -1.013 1.223 -0.512 2.419 -1.076 3.544 -1.782 0.019 -0.012 0.043 -0.017 0.079 -0.032 0.864 2.26 1.728 4.517 2.578 6.79 -3.21 0.015 -6.408 0.015 -9.628 0.015 -0.065 -0.049 -0.035 -0.109 -0.059 -0.176C0.047 23.951 0.047 23.854 0.047 23.737" stroke-width="0.047244094488188976"/><path fill="#1C1C1C" opacity="1.000000" stroke="none" d="M10.652 24.236c0.142 -0.854 0.305 -1.708 0.47 -2.562 0.067 -0.346 0.138 -0.691 0.214 -1.07 -0.132 0 -0.254 0.005 -0.375 -0.001 -0.35 -0.018 -0.587 -0.245 -0.601 -0.597 -0.013 -0.322 -0.014 -0.645 0 -0.967 0.016 -0.372 0.265 -0.606 0.643 -0.609 0.7 -0.006 1.4 -0.007 2.1 0 0.384 0.004 0.628 0.26 0.633 0.643q0.006 0.436 0 0.873c-0.005 0.418 -0.245 0.653 -0.66 0.656 -0.311 0.002 -0.307 0.001 -0.246 0.318 0.209 1.093 0.414 2.187 0.628 3.298 -0.924 0.017 -1.854 0.017 -2.806 0.017" stroke-width="0.047244094488188976"/><path fill="#3B3B3B" opacity="1.000000" stroke="none" d="M24.024 24.236c-0.012 -0.574 -0.047 -1.148 0.009 -1.734 0.014 0.569 0.014 1.152 -0.009 1.734" stroke-width="0.047244094488188976"/><path fill="#4E4E4E" opacity="1.000000" stroke="none" d="M0.047 24.071c0.07 0.012 0.038 0.077 0.046 0.148 -0.1 -0.001 -0.023 -0.079 -0.046 -0.148" stroke-width="0.047244094488188976"/><path fill="#1A1A1A" opacity="1.000000" stroke="none" d="M13.189 16.731c0.651 -0.868 0.469 -1.9 -0.51 -2.527 -1.219 -0.781 -2.508 -0.811 -3.806 -0.163 -0.125 0.062 -0.237 0.155 -0.342 0.249 -0.112 0.1 -0.178 0.09 -0.251 -0.043 -0.228 -0.419 -0.474 -0.83 -0.642 -1.279 -0.024 -0.065 -0.05 -0.128 -0.116 -0.172 -0.507 -0.335 -0.799 -0.829 -1.014 -1.38 -0.337 -0.862 -0.498 -1.748 -0.375 -2.674 0.023 -0.174 0.077 -0.336 0.165 -0.487 0.04 -0.069 0.091 -0.154 0.168 -0.154 0.289 -0.003 0.22 -0.196 0.209 -0.362 -0.071 -1.079 0.068 -2.119 0.622 -3.068 0.784 -1.342 1.999 -2.08 3.489 -2.369 1.799 -0.35 3.479 -0.051 4.94 1.109 1.114 0.885 1.625 2.087 1.701 3.487 0.019 0.345 -0.005 0.692 -0.007 1.038 0 0.054 -0.051 0.141 0.061 0.139 0.276 -0.004 0.349 0.202 0.421 0.403 0.129 0.364 0.117 0.745 0.093 1.121 -0.055 0.889 -0.274 1.733 -0.747 2.499 -0.133 0.215 -0.285 0.421 -0.494 0.563 -0.186 0.126 -0.289 0.291 -0.37 0.493 -0.235 0.584 -0.603 1.099 -0.871 1.666 -0.057 0.121 -0.109 0.246 -0.107 0.381 0.022 1.031 -0.535 1.669 -1.417 2.077 -0.696 0.321 -1.433 0.435 -2.202 0.379 0.528 -0.21 1.027 -0.459 1.401 -0.925" stroke-width="0.047244094488188976"/></svg>