<svg xmlns="http://www.w3.org/2000/svg" width="24" viewBox="0 0 24 24" xml:space="preserve" height="24"><path fill="#F7F7F7" d="M.047 6.375c0-2.07.002-4.117-.004-6.164 0-.14.028-.168.168-.168q11.836.006 23.672 0c.14 0 .168.028.168.168q-.006 11.836 0 23.672c0 .14-.028.168-.168.168q-11.836-.007-23.672.001c-.172 0-.166-.066-.166-.193.002-5.82.002-11.64.002-17.484"/><path fill="#2C3137" d="M23.023 17.838c-.457.058-.869-.025-1.173-.408-.057-.072-.086-.016-.127.022-.605.553-1.149.559-1.719.006-.088-.085-.113-.048-.176.015-.517.523-1.168.525-1.688-.002-.087-.088-.116-.073-.192.006-.499.514-1.177.516-1.673.008-.064-.066-.097-.132-.191-.022-.288.339-.664.445-1.114.384a2 2 0 0 1-.353-.176 1.08 1.08 0 0 1-.506-.924c-.004-.335-.078-.698.025-.999s.442-.488.674-.728c.249-.258.511-.504.757-.766a.46.46 0 0 1 .37-.149q3.055.006 6.109 0c.144 0 .249.04.35.143q.674.683 1.358 1.355c.08.079.11.159.108.268-.006.265-.001.531-.002.796-.002.582-.276.96-.836 1.17"/><path fill="#2C3237" d="M16.086 3.963c-.448.057-.856-.019-1.158-.391-.058-.072-.087-.047-.144.005-.605.555-1.141.558-1.719.007-.067-.063-.098-.079-.16-.001-.421.532-1.287.544-1.72-.002-.065-.083-.102-.062-.159.007a1.116 1.116 0 0 1-1.705.006c-.068-.081-.104-.084-.175-.002-.291.335-.664.446-1.115.382a2 2 0 0 1-.372-.188c-.312-.221-.484-.524-.487-.911-.003-.335-.076-.696.025-.999.098-.295.43-.477.657-.712.255-.264.522-.515.774-.782a.46.46 0 0 1 .371-.149q3.043.006 6.086 0c.161 0 .278.043.39.159q.664.677 1.341 1.34c.08.078.111.158.108.267-.006.265-.001.531-.002.796-.002.581-.28.965-.836 1.17"/><path fill="#2C3137" d="M.948 17.752c-.45-.158-.675-.492-.708-.948-.023-.319-.001-.64-.008-.96-.002-.106.043-.172.113-.241q.684-.674 1.358-1.358a.42.42 0 0 1 .327-.139q3.08.006 6.16 0c.138 0 .233.047.327.141q.675.683 1.36 1.356a.33.33 0 0 1 .109.267c-.006.265-.001.531-.002.796-.002.584-.275.961-.836 1.171-.457.057-.869-.025-1.173-.408-.057-.072-.086-.016-.127.021-.606.554-1.15.56-1.719.007-.087-.084-.112-.05-.176.014-.518.523-1.169.525-1.687-.001-.085-.086-.114-.076-.192.004-.5.515-1.179.519-1.672.01-.084-.087-.126-.118-.207-.004a.8.8 0 0 1-.304.236c-.115.007-.189-.03-.233-.141a.3.3 0 0 1-.009-.102.3.3 0 0 1 .024-.067 1 1 0 0 1 .064-.088c.381-.323.305-.742.29-1.145-.003-.088-.075-.113-.151-.115-.343-.009-.687-.005-1.03-.003-.12.001-.165.067-.165.178.001.303-.036.611.114.914a.3.3 0 0 1-.003.106c-.08.118-.082.202.041.275.075.044.164.092.115.222"/><path fill="#283238" d="M9.984 22.98c0 .123.002.225 0 .326a.54.54 0 0 1-.564.553q-4.309.002-8.619 0c-.34-.001-.55-.231-.569-.574-.042-.75.138-.939.92-.933 2.74.019 5.48.007 8.22.008.391 0 .602.208.612.62m12.563.879h-7.798c-.432 0-.639-.209-.64-.641q-.002-.152 0-.304a.54.54 0 0 1 .563-.553q4.308-.002 8.617 0c.342 0 .553.228.572.57.04.748-.131.982-.917.931-.124-.008-.25-.001-.398-.001M9.469 8.484c2.257 0 4.491.002 6.725-.003.284-.001.558.034.664.325.112.309.14.646-.049.946-.124.196-.331.235-.555.235q-2.647-.004-5.296-.002H7.842c-.46 0-.668-.211-.67-.673v-.211c.006-.387.224-.612.61-.614.555-.004 1.109-.001 1.687-.001"/><path fill="#25333B" d="M5.723 20.859c-.101 0-.179.003-.257-.001a.554.554 0 0 1-.541-.54 10 10 0 0 1 0-.796.543.543 0 0 1 .544-.535q1.136-.012 2.273 0c.318.003.541.232.553.55.009.242.006.484.002.726-.007.369-.231.593-.605.595-.648.004-1.296.001-1.967.001m16.101-.045c-.079.019-.139.042-.2.042-.756.003-1.513.007-2.269 0-.327-.003-.55-.238-.559-.568q-.01-.374.001-.748c.01-.316.233-.55.548-.553a114 114 0 0 1 2.269-.001.545.545 0 0 1 .553.548c.009.257.006.515.001.772-.004.232-.125.394-.344.507M14.202 6.984c-.586 0-1.148.002-1.71-.001-.413-.002-.629-.222-.632-.639q-.005-.328.001-.656c.008-.344.233-.575.574-.577q1.113-.008 2.226 0c.342.003.565.234.573.578q.008.351 0 .703c-.007.359-.229.581-.586.591-.14.004-.281.001-.445.001"/><path fill="#2C353B" d="M11.748 12.952c.132-.055.112-.154.112-.246v-1.779l.001-.164c.001-.129.061-.215.194-.212.135.004.182.097.182.223-.001.632.005 1.264-.004 1.896-.002.148.036.237.167.319.581.364 1.154.74 1.729 1.113.059.038.12.075.169.124.069.07.068.154.014.234a.17.17 0 0 1-.207.064c-.072-.027-.136-.074-.201-.116-.563-.363-1.129-.722-1.686-1.093-.122-.081-.205-.085-.327-.004-.559.37-1.124.729-1.687 1.091l-.117.077c-.112.071-.227.091-.305-.037s-.004-.217.107-.289c.616-.396 1.231-.793 1.862-1.201"/><path fill="#293238" d="M9.235 6.516c0 .453-.002.883.001 1.312.001.146-.019.283-.201.276-.167-.007-.177-.142-.176-.276.002-.703-.002-1.406.002-2.109.002-.385.227-.606.614-.609q.609-.005 1.218 0c.373.004.601.227.603.597.004.711 0 1.422.002 2.132 0 .138-.024.265-.189.264s-.188-.127-.188-.265q.003-1.02.001-2.039c0-.27-.045-.315-.311-.315-.359-.001-.719.007-1.078-.003-.225-.006-.31.089-.301.308.01.234.002.469.002.726m6.563 14.063c0-.352-.004-.68.001-1.008.006-.355.233-.581.591-.585a49 49 0 0 1 1.265.001c.345.005.575.23.578.573.006.726.001 1.453.003 2.179 0 .134-.041.241-.189.241-.15 0-.188-.108-.188-.242q.002-1.031 0-2.062c0-.272-.043-.315-.309-.316-.367-.001-.734.005-1.101-.002-.201-.004-.28.085-.278.282.005.695.001 1.39.003 2.085 0 .142-.035.261-.2.254-.149-.006-.184-.121-.176-.252v-.117z"/><path fill="#283239" d="M4.359 21.234c0 .18-.002.336.001.492.003.142-.036.26-.2.253-.15-.006-.177-.122-.177-.252q.002-1.008.001-2.015c0-.322-.029-.352-.344-.352-.352 0-.703.006-1.054-.002-.212-.005-.293.085-.291.294.006.68.003 1.359.002 2.039 0 .076.015.156-.045.223-.052.058-.114.087-.187.064-.09-.028-.142-.091-.142-.191.001-.765-.006-1.531.007-2.296.005-.276.244-.494.526-.501q.68-.016 1.359 0c.323.007.54.245.544.582.005.547.002 1.094.002 1.664"/><path fill="#293239" d="M1.055 17.857c.095.087.12.191.12.314q-.005 1.755-.002 3.51c0 .138.002.29-.178.297-.2.007-.198-.152-.198-.299q.002-1.755 0-3.51c0-.173.015-.32.259-.312"/><path fill="#283238" d="M8.009 3.978c.08.09.103.194.103.317a822 822 0 0 0-.002 3.511c0 .139.002.29-.179.297-.201.007-.198-.153-.197-.3q.003-1.767-.001-3.535c0-.173.038-.296.262-.284.018-.003.015-.006.013-.007m11.586 5.632h1.707c.146 0 .307-.007.303.193-.003.18-.151.183-.292.183q-1.765-.002-3.53 0c-.139 0-.289.001-.291-.182-.002-.199.157-.194.303-.194.592.002 1.184.001 1.8.001m-3.513-5.629c.214-.016.282.092.281.297q-.005 1.767-.002 3.534c0 .14-.003.287-.184.291-.184.004-.192-.14-.192-.282V4.264c0-.096-.001-.188.096-.269.007-.018.003-.016.002-.014M3.75 9.609h2.641c.13-.002.216.058.213.19s-.093.185-.221.185H5.354q-1.286-.001-2.571.001c-.138 0-.289.003-.293-.18-.004-.199.154-.197.301-.196.312.002.623.001.958.001"/><path fill="#293239" d="M23.019 17.856c.214-.017.282.092.281.296q-.006 1.767-.002 3.533c0 .14-.002.288-.184.292s-.193-.138-.193-.282q.002-1.778 0-3.557c0-.096-.001-.189.095-.269.007-.018.003-.016.002-.014m-8.071-.002c.078.09.103.194.103.317q-.005 1.755-.002 3.51c0 .138.002.29-.179.297-.2.007-.198-.152-.198-.3q.002-1.755 0-3.51c0-.173.017-.32.262-.307.018-.003.015-.006.014-.007m-5.803.003c.213-.015.282.092.281.297-.005 1.178-.003 2.356-.002 3.533 0 .14-.002.288-.184.292s-.193-.139-.193-.282q.002-1.779 0-3.557c0-.096-.001-.188.096-.269.007-.018.003-.016.002-.014"/><path fill="#293439" d="M21.234 2.204c0-.108-.004-.194.002-.279.008-.118.073-.19.194-.187.109.003.167.073.178.18.019.184-.08.428.043.535.103.09.341.025.519.033.12.005.19.075.186.194-.004.106-.072.168-.18.179-.184.019-.428-.081-.535.043-.09.104-.024.341-.034.519-.006.118-.075.19-.196.186-.108-.004-.166-.073-.176-.181-.018-.184.082-.428-.043-.535-.105-.09-.342-.024-.52-.032-.119-.006-.19-.075-.184-.196.005-.107.073-.17.182-.175.101-.005.205-.014.304 0 .211.03.301-.046.26-.283"/><path fill="#2A3339" d="M20.419 4.87c-.186.096-.367.044-.544.048-.113.003-.15.036-.143.147.008.132.002.265.001.398-.001.118-.059.2-.178.204-.133.005-.19-.079-.198-.208-.011-.176.08-.41-.043-.511-.104-.085-.328-.023-.499-.027-.118-.003-.2-.06-.203-.179-.003-.132.083-.188.211-.196.176-.012.409.082.51-.044.085-.106.022-.329.025-.5.003-.118.062-.198.182-.2.134-.003.19.084.193.212.004.17-.052.391.033.496.091.113.321.025.49.037.204.015.253.101.162.323"/><path fill="#2C353B" d="M.949 17.774c-.001-.163-.145-.176-.227-.243-.097-.079-.171-.15.012-.233a.16.16 0 0 1 .081-.028c.024.006.033.01.053.024a.37.37 0 0 0 .167.114c.024.011.033.017.057.03.194.066.391-.02.581.082.041.096.099.15.192.188-.148.124-.327.151-.534.147-.069-.101-.135-.122-.238-.047a.6.6 0 0 1-.145-.033M22.671 9.66c.089.222.039.313-.161.324-.108.006-.217.003-.326 0-.118-.003-.195-.063-.196-.183-.002-.118.071-.193.189-.189.16.005.325-.041.494.048m-21.307.099c.114-.145.535-.211.66-.115.115.088.121.194.012.294-.075.069-.522.066-.604.002-.054-.042-.076-.096-.068-.182"/><path fill="#30343C" d="M1.087 17.823c.028-.104.081-.173.196-.147.107.024.038.092.032.16-.069.012-.137.008-.224.01-.02.006-.017.007-.016.008.007-.006.014-.013.012-.031"/><path fill="#FCFDFD" d="M21.156 17.423c-.602.176-1.047-.156-1.046-.768 0-.216-.091-.5.036-.631.128-.131.413-.033.629-.038.234-.006.468.003.702-.003.101-.003.137.027.134.131-.007.218.005.437-.005.655-.015.298-.172.509-.45.654m-4.124.058c-.476-.122-.675-.37-.67-.836.002-.215-.094-.502.042-.625.117-.106.399-.033.608-.035.226-.002.453.006.678-.003.127-.005.182.024.172.164-.012.171-.002.343-.003.514-.003.514-.296.811-.827.821"/><path fill="#F85454" d="M15.985 16.407c-.005.27.028.52-.13.743-.186.261-.496.392-.794.316a.76.76 0 0 1-.572-.688c-.01-.21.005-.421-.006-.63-.007-.142.058-.168.181-.166.35.006.701.013 1.051-.002.204-.009.312.038.272.264-.008.045-.001.093-.001.163m2.272.515c-.012-.275-.015-.532-.025-.789-.004-.111.038-.151.149-.15q.607.006 1.216.001c.1-.001.14.037.138.137-.005.234.009.468-.009.701-.025.327-.31.61-.635.657-.361.052-.666-.147-.834-.558m3.973.366c-.281-.26-.25-.586-.246-.907.004-.394.002-.394.392-.395.312-.001.624.005.936-.003.132-.003.181.043.175.175a7 7 0 0 0-.002.515c.008.327-.125.579-.414.729-.292.152-.573.106-.841-.114"/><path fill="#F55556" d="M15.422 15.61h-.611c-.001-.115.091-.15.145-.207.134-.142.274-.277.411-.415.559-.562.565-.564 1.364-.503.043.003.103-.019.121.038.016.049-.03.083-.058.119-.117.155-.258.298-.347.469-.218.417-.541.589-1.026.498m7.206-.596.573.529-.041.066h-1.183c-.062 0-.103-.035-.136-.079l-.758-1.013c.614-.099 1.163-.095 1.544.496"/><path fill="#F65555" d="M18.338 15.382c.062-.244.13-.467.176-.695.029-.145.084-.207.243-.207.639-.003.639-.009.797.626.126.504.126.504-.381.504-.225 0-.452-.012-.676.004-.186.013-.211-.063-.159-.231"/><path fill="#FBFCFC" d="M20.331 14.484c.187-.03.291.041.386.178.216.31.45.608.703.947h-1.264c-.05 0-.082-.01-.096-.071-.082-.345-.17-.688-.262-1.054zm-2.249.001c.124.058.055.137.04.201-.046.203-.126.401-.149.606-.03.273-.155.346-.419.323-.316-.027-.637-.006-1.008-.006.289-.384.551-.742.827-1.09.067-.084.192-.028.29-.033.132-.007.264-.002.418-.001"/><path fill="#F85455" d="M16.299 3.411c-.259.216-.532.262-.82.123a.72.72 0 0 1-.432-.716c.007-.225-.093-.512.038-.658.134-.15.427-.04.65-.049.21-.009.422.007.632-.004.148-.008.19.05.182.189-.01.171-.006.343-.001.515a.76.76 0 0 1-.248.6"/><path fill="#FCFDFD" d="M14.672 2.577c-.008.185.017.348-.037.509a.76.76 0 0 1-.794.52.764.764 0 0 1-.668-.701l-.001-.023c.004-.248-.083-.564.038-.724.115-.152.45-.034.688-.046.109-.006.218-.001.327-.001.446 0 .446 0 .446.467"/><path fill="#F85454" d="M12.549 3.411c-.259.216-.532.262-.819.123a.72.72 0 0 1-.432-.715c.007-.225-.093-.512.037-.658.134-.15.427-.041.649-.05.21-.009.421.002.632-.004.122-.004.19.022.183.166-.01.21.001.421-.005.632a.7.7 0 0 1-.245.506"/><path fill="#FCFDFD" d="M9.723 3.455a.77.77 0 0 1-.301-.669c.008-.217-.071-.501.038-.633.114-.138.409-.035.624-.042.21-.007.423.013.632-.006.188-.017.225.057.21.222-.014.155-.007.312-.002.468.009.317-.117.564-.393.719-.269.15-.538.127-.807-.058"/><path fill="#F85455" d="M9.047 2.441c-.001.171.005.319-.003.467a.747.747 0 0 1-.739.7.747.747 0 0 1-.754-.684c-.014-.225-.001-.452-.005-.677-.002-.099.034-.139.136-.138.405.003.81 0 1.215.001.256.001.112.2.151.331"/><path fill="#F55556" d="M9.113.609h.81c-.046.18-.167.29-.262.414-.179.235-.3.566-.552.678-.242.107-.566.03-.853.033h-.389c.022-.124.119-.172.184-.238.25-.257.507-.506.757-.763.08-.083.163-.143.306-.124m5.381.505-.366-.502h.975c.061 0 .099.041.137.08.333.328.666.656.985 1.043-.234 0-.473-.027-.703.006-.412.059-.707-.07-.894-.445-.031-.062-.083-.113-.136-.182"/><path fill="#F65555" d="M12.7 1.719c-.406.011-.795.01-1.183.017-.126.002-.165-.031-.13-.16.076-.277.139-.557.207-.837.021-.084.062-.142.16-.13q.023.002.047 0c.662-.025.663-.025.818.626.038.157.103.309.081.484"/><path fill="#FBFCFC" d="m13.736.736.747.999h-1.265c-.05 0-.082-.011-.096-.072-.082-.345-.17-.689-.261-1.053.244 0 .461.005.678-.002.095-.003.14.051.197.129M10.533.61h.701c-.091.363-.18.705-.26 1.049-.018.077-.062.075-.117.075H9.598c.345-.386.547-.82.934-1.125"/><path fill="#FCFDFD" d="M7.734 16.497c0 .537-.145.81-.486.938-.452.169-.96-.128-1.005-.608-.025-.269-.088-.594.031-.797.087-.149.447-.031.685-.045.093-.005.187-.001.28-.001.494 0 .494 0 .494.513m-4.452-.513c.246.017.543-.098.669.046.109.125.034.415.033.631-.001.486-.32.827-.761.821-.43-.006-.736-.345-.737-.821 0-.217-.076-.507.033-.631.127-.145.424-.03.646-.046.031-.002.062 0 .117 0"/><path fill="#F85454" d="M8.157 16.994c-.088-.309-.033-.607-.047-.901-.005-.101.064-.109.14-.109.405 0 .811.003 1.216-.002.116-.001.147.049.144.155-.005.171 0 .343-.001.515-.003.42-.21.715-.569.811-.35.094-.664-.068-.884-.469m-3.797-.678c.005-.364-.044-.33.315-.332.335-.001.67.006 1.004-.003.146-.004.191.045.184.187-.011.202.005.405-.006.607a.75.75 0 0 1-.755.708.75.75 0 0 1-.739-.725c-.005-.14-.002-.28-.003-.443m-3.599.893c-.23-.36-.131-.75-.148-1.125-.004-.085.057-.099.125-.099h1.259c.077 0 .114.033.113.111-.004.256.011.514-.014.769-.021.218-.161.382-.35.52l-.05.039c-.013.009-.01.007-.012.006-.202.129-.409.092-.633.015-.015-.014-.019-.012-.017-.012-.055-.037-.13-.045-.179-.122-.009-.012-.01-.016-.012-.016-.028-.024-.062-.04-.083-.088"/><path fill="#F55556" d="M1.397 15.084c.039-.04.072-.064.093-.096.363-.561.906-.572 1.521-.473-.168.225-.352.426-.481.657-.205.365-.486.503-.898.444-.227-.032-.462-.006-.694-.006l-.035-.057.495-.47m7.118-.303.831.828c-.455 0-.848.001-1.242-.002-.035 0-.084-.015-.103-.04-.264-.343-.524-.689-.819-1.079.369 0 .679-.013.987.005.158.009.222.183.346.287"/><path fill="#F65555" d="M4.743 15.61c-.336-.001-.334-.001-.259-.294.056-.219.114-.437.16-.658.027-.129.087-.173.223-.176.665-.014.665-.019.813.638l.005.023c.112.469.112.469-.358.468z"/><path fill="#FBFCFC" d="m6.984 14.859.562.75h-1.25c-.057 0-.097-.003-.114-.078-.071-.309-.152-.616-.231-.924-.021-.084-.005-.128.097-.125.187.007.375-.009.561.005.213.016.235.246.375.372m-3.562.75h-.75l.814-1.084c.039-.053.097-.041.151-.041h.659c-.091.365-.18.709-.26 1.055-.019.081-.07.069-.121.069l-.492.001"/><path fill="#30343C" d="M1.038 17.45c.2.033.403.064.624-.019.021.021.023.044.025.083-.214-.015-.442.087-.649-.064m-.286-.237q.04.013.083.07c-.015.013-.035.013-.07.014-.015-.022-.014-.045-.013-.084m.94.217q-.002-.014.029-.034.009.02-.029.034"/><path fill="#EFD668" d="M9.479 23.412c.033.042.024.054.002.07-.045.026-.084.026-.123.026-2.872-.002-5.744.005-8.635-.017-.019-.013-.017-.007-.014-.008.004-.017.004-.032.022-.063.127-.072.245-.061.362-.061H9.14c.101 0 .203-.004.339.054"/><path fill="#323211" d="M.716 23.492c.525-.013 1.063-.008 1.601-.008 2.37.001 4.74 0 7.132.002-.042.066-.125.044-.2.044H.935c-.069 0-.141.015-.219-.038"/><path fill="#34310F" d="M.764 22.747c.048-.081.131-.059.206-.059q4.157-.002 8.314 0c.069 0 .141-.016.216.043-.061.079-.15.07-.235.07-2.775.001-5.55.004-8.326-.001a1 1 0 0 1-.093-.01.2.2 0 0 1-.082-.042"/><path fill="#F1D667" d="M.798 22.766c.123-.026.248-.032.373-.032 2.765.001 5.531.003 8.317.009q.031.007.007.046c-.124.083-.243.072-.359.072H1.157c-.093 0-.188.003-.3-.033-.034-.019-.046-.029-.059-.062"/><path fill="#323211" d="M9.582 22.851c.131.154.073.336.031.526-.058-.032-.063-.087-.068-.163.003-.13-.015-.24.037-.363"/><path fill="#EFD668" d="M.597 22.893c.018-.032.028-.044.063-.046.086.163.072.32.031.496-.019.027-.029.035-.059.042-.02-.002-.022.004-.019.005-.058-.155-.016-.317-.017-.496"/><path fill="#323211" d="M.593 22.887c.015.143.018.302.023.481-.101-.134-.046-.302-.023-.481"/><path fill="#F1D667" d="M9.586 22.833c.013.11.018.22.019.349-.015.023-.028.026-.054.016-.063-.109-.057-.208-.011-.339.022-.03.038-.027.046-.026"/><path fill="#EFD668" d="M9.551 23.216c.013-.013.032-.013.041-.013.01.049.01.098.007.166-.003.018-.02.019-.041.008-.043-.057-.043-.103-.007-.161m-8.766-.477c.012.003.012.022.012.032-.012.024-.028.032-.071.022-.019-.028-.009-.04.013-.056.017-.005.025-.003.046.002m-.128.09a.1.1 0 0 1 .033-.046q.016-.001.016.002c.005.021-.001.037-.03.048-.014-.001-.017-.003-.018-.004"/><path fill="#323211" d="M.684 23.449c.017-.011.024.01.025.021-.013.004-.028-.003-.025-.021"/><path fill="#EFD668" d="M9.561 23.39a.1.1 0 0 1-.032.046q-.016.001-.016-.002c-.006-.021 0-.037.03-.048.014.001.017.003.018.004"/><path fill="#323211" d="M.616 23.394c-.003-.012.019-.008.03.017s.009.027.008.028a.2.2 0 0 1-.038-.046"/><path fill="#F1D667" d="M9.514 22.783a.1.1 0 0 1 .045.033c.002.012-.001.014-.002.015-.02.005-.036-.002-.047-.03.001-.014.003-.016.004-.018"/><path fill="#EFD668" d="M23.395 23.371c.039.088.002.132-.077.156-.105-.039-.2-.018-.292-.018-2.801-.003-5.602.002-8.425-.011-.041-.023-.06-.038-.09-.059-.079-.046-.039-.11-.033-.182.027-.02.042-.021.078-.013.144.111.292.115.442.115 2.77-.005 5.54.012 8.31-.009.016 0 .031.002.088.022"/><path fill="#F1D667" d="M14.591 22.76c.002-.023.019-.022.026-.026.059-.031.114-.022.168-.022 2.839.001 5.677-.003 8.538.01.034.018.046.028.047.064-.119.087-.238.075-.355.075h-8.048c-.101 0-.203.005-.323-.036-.033-.021-.044-.031-.054-.065"/><path fill="#34310F" d="M23.33 22.717c-2.877.014-5.769.016-8.684.015.035-.061.109-.044.177-.044h8.354c.046 0 .092.011.153.029"/><path fill="#323211" d="M14.594 23.502c2.87-.014 5.755-.015 8.639-.015.015 0 .031.005.058.025-2.848.018-5.708.019-8.568.019a.4.4 0 0 1-.129-.029"/><path fill="#34310F" d="M14.505 23.231a.7.7 0 0 0-.007.183c-.122-.149-.046-.334-.03-.527.109.089.09.206.038.344"/><path fill="#EFD668" d="M23.485 23.374c-.018.013-.033.014-.041.015a.02.02 0 0 1-.014-.005c-.099-.158-.066-.324-.016-.523.039-.028.051-.019.067.003.045.17.021.334.004.51"/><path fill="#323211" d="M23.484 23.378a4 4 0 0 1 .002-.483c.076.142.056.307-.002.483"/><path fill="#F1D667" d="M14.501 23.25c-.012-.112-.015-.223-.02-.356-.002-.021.007-.034.006-.042.012-.012.025-.015.054-.005a.38.38 0 0 1 .003.389c-.015.015-.034.015-.044.015m8.891-.47a.1.1 0 0 1 .045.034c.002.012-.001.014-.002.015-.021.006-.037 0-.048-.03.001-.014.004-.017.005-.019"/><path fill="#34310F" d="M14.519 22.81c.005.02-.002.023-.02.03-.005-.013.002-.03.02-.03m.061-.07c.013-.003.005.019-.021.031s-.029.009-.03.007a.2.2 0 0 1 .051-.038"/><path fill="#F1D667" d="M16.461 9.595c-.021.009-.041.009-.049.014-.06.032-.115.023-.169.023-2.837-.001-5.673.003-8.532-.01-.022-.008-.038-.018-.048-.018-.059-.017-.09-.043-.034-.11.199-.043.377-.009.556-.01q3.86-.004 7.723-.001c.164 0 .327-.015.513-.007.067.028.101.055.04.119"/><path fill="#EFD668" d="M7.654 8.886c.002-.023.019-.022.026-.027.058-.032.114-.023.168-.023 2.838.001 5.676-.003 8.535.01.022.008.038.018.047.017.01.015.01.03-.007.061-.127.072-.246.061-.362.061h-8.03c-.101 0-.203.005-.323-.036-.033-.02-.044-.031-.054-.065"/><path fill="#323211" d="M16.391 8.842c-2.877.014-5.768.015-8.681.015.034-.062.108-.044.176-.044h8.353a.5.5 0 0 1 .152.029"/><path fill="#34310F" d="M7.704 9.626a1785 1785 0 0 1 8.678-.015c-.034.063-.109.044-.176.044H7.857a.5.5 0 0 1-.152-.029"/><path fill="#323211" d="M7.567 9.489c-.105-.147-.067-.329-.02-.511.054.043.059.093.063.162-.002.119.012.221-.043.349m8.959-.509c.107.146.067.329.023.51-.084-.091-.06-.195-.066-.313a.4.4 0 0 1 .043-.198"/><path fill="#34310F" d="M7.57 9.515a.24.24 0 0 1 .076.078c-.038.014-.078.008-.099-.059q-.007-.023.023-.019m8.887.089c.002-.021.021-.041.061-.079.022-.018.027-.012.03-.01-.005.048-.022.084-.09.089"/><path fill="#323211" d="m16.464 8.928-.02-.055c.041-.012.082-.005.102.061.003.016-.002.021-.028.026-.032 0-.039-.005-.054-.033m-8.822-.061c.013-.003.004.018-.025.028-.015-.002-.002-.014.025-.028m-.094.087c.002-.017.011-.029.031-.045.009-.006.012-.004-.006.024s-.023.023-.025.021"/><path fill="#42C3FC" d="M7.922 20.187c.013.221-.081.3-.279.299a123 123 0 0 0-2.058 0c-.211.002-.299-.082-.289-.293.009-.194.005-.39.001-.585-.003-.163.068-.25.235-.25h2.152c.168 0 .241.083.239.245-.002.187 0 .374 0 .583m12.14-.826c.491 0 .958-.001 1.426.001.271.001.306.038.308.315.001.187-.002.374.001.561.002.163-.07.248-.237.248H19.41c-.15 0-.236-.066-.237-.222q-.001-.339 0-.678c.001-.156.084-.225.235-.225z"/><path fill="#42C2FB" d="M12.235 5.738c0-.19.091-.255.252-.254q1.063.003 2.127 0c.164 0 .246.074.245.24l-.001.655q0 .23-.23.23l-2.151.001c-.164 0-.244-.076-.243-.242.002-.203 0-.405 0-.629"/><path fill="#30343C" d="M.847 17.317a.7.7 0 0 1 .182.103c-.078.021-.153.013-.182-.103"/><path fill="#FED741" d="M9.49 22.786c.028.015.037.026.057.041a4 4 0 0 1 .011.542c-.015.024-.026.033-.041.054q-3.011.015-6.013.014H.723l-.021.001c-.011-.01-.022-.02-.04-.039-.008-.008-.006-.008-.007-.007.001-.172.001-.345.004-.538.015-.027.027-.036.041-.057.026-.011.046-.012.081-.015 2.905 0 5.796.002 8.708.005"/><path fill="#EFD668" d="M.654 23.402q.02-.004.045.025c.004.011-.019.013-.03.011-.012-.002-.015-.025-.014-.036"/><path fill="#FED741" d="M23.365 22.785c.027.015.036.027.058.041.01.175.011.345.008.536a.57.57 0 0 1-.322.077q-4.123-.002-8.247 0c-.134 0-.273.016-.33-.171-.002-.144-.002-.271-.002-.42 0-.021 0-.02-.001-.02q.012-.015.039-.041l.007-.006c2.922.001 5.844.001 8.788.004"/><path fill="#F1D667" d="M14.567 22.78q.004.018-.026.044c-.011.005-.012-.018-.01-.03.002-.011.024-.015.036-.014"/><path fill="#FED741" d="M7.64 8.906h8.793l.02-.001a.2.2 0 0 0 .039.04l.007.007c.037.048.018.105.023.179-.001.13.003.24-.013.368l-.01.017c-.229.058-.463.047-.696.047q-3.88-.001-7.757.001c-.142 0-.28-.01-.435-.047-.02 0-.018 0-.018.001-.046-.105-.012-.216-.022-.345 0-.075-.001-.13.012-.203.01-.018.011-.016.01-.016a.2.2 0 0 1 .039-.04c.008-.008.008-.006.007-.007"/><path fill="#F1D667" d="M7.583 9.129c.01.124.01.236.01.368 0 .021-.019.016-.029.013a3 3 0 0 1-.013-.35c.01-.028.016-.036.032-.032"/><path fill="#EFD668" d="M7.593 9.122c-.001.019-.02.019-.029.019a1 1 0 0 1-.011-.162c.001-.018.021-.022.03-.025a1 1 0 0 1 .01.168"/><path fill="#F1D667" d="M16.51 9.515c-.009-.109-.009-.221-.009-.353.007-.029.013-.037.029-.033.01.121.011.23.011.359-.002.02-.021.024-.03.027"/><path fill="#EFD668" d="M16.543 9.123c-.003.018-.023.018-.032.018-.01-.05-.01-.101-.01-.17 0-.019.02-.014.029-.012.012.05.014.098.013.164m-.044-.183q-.016.005-.041-.025.016-.005.041.025m-8.87-.035q.004.018-.026.044c-.011.005-.011-.019-.01-.03.001-.012.024-.014.036-.014"/></svg>