<svg class="h-6 w-6" stroke="currentColor" version="1.1" id="Layer_1" xmlns="http://www.w3.org/2000/svg" xmlns:xlink="http://www.w3.org/1999/xlink" x="0px" y="0px" width="24" viewBox="0 0 24 24" enable-background="new 0 0 150 163" xml:space="preserve" height="24"><path fill="#F5F5F5" opacity="1.000000" stroke="none" d="M0.16 15.52V0.16c3.897 0 7.793 0 11.754 0.053 -0.08 0.172 -0.22 0.294 -0.367 0.409C9.076 2.544 6.588 4.443 4.156 6.413c-0.342 0.277 -0.593 0.913 -0.553 1.353 0.052 0.582 0.621 0.796 1.224 0.723 0.091 -0.011 0.186 0.018 0.304 0.031 0 1.443 -0.009 2.827 0.01 4.21 0.003 0.212 0.136 0.423 0.209 0.634l0.27 -0.063c0 -1.54 -0.01 -3.081 0.01 -4.621 0.003 -0.269 0.044 -0.651 0.218 -0.786C7.942 6.273 10.065 4.69 12.198 3.083c2.037 1.58 4.054 3.128 6.043 4.712 0.203 0.161 0.331 0.527 0.338 0.803 0.035 1.305 0.004 2.611 0.027 3.917 0.004 0.256 0.144 0.51 0.221 0.765l0.235 -0.058v-4.746c0.735 0.201 1.325 0.099 1.637 -0.609 0.274 -0.62 -0.045 -1.1 -0.496 -1.455 -1.497 -1.183 -3.032 -2.318 -4.53 -3.5C14.539 2.016 13.437 1.079 12.32 0.16h11.84c0 5.123 0 10.247 -0.055 15.43 -0.307 -0.193 -0.536 -0.632 -0.817 -0.669 -1.515 -0.199 -3.047 -0.464 -4.542 0.182 -0.164 0.071 -0.451 -0.016 -0.628 -0.12 -0.776 -0.455 -1.51 -0.987 -2.303 -1.409 -1.492 -0.795 -3.745 -0.67 -4.855 0.821 -0.119 0.16 -0.37 0.247 -0.578 0.311 -0.792 0.247 -1.578 0.56 -2.391 0.676 -0.736 0.105 -1.606 0.196 -2.226 -0.104 -0.484 -0.234 -0.9 -0.568 -1.471 -0.57 -0.746 -0.004 -1.494 0.035 -2.237 -0.01C1.269 14.652 0.599 14.797 0.16 15.52m11.775 -6.817c0.143 0.011 0.286 0.022 0.52 0.087 0.314 -0.02 0.628 -0.04 1.089 -0.095 0.128 -0.094 0.362 -0.184 0.366 -0.283 0.031 -0.734 0.017 -1.47 0.017 -2.221H10.291c0.105 0.894 0.201 1.71 0.391 2.59 0.371 -0.014 0.742 -0.028 1.253 -0.078m1.98 2.824 0.068 -1.25H10.098v1.664l0.255 0.047 0.248 -1.242h2.835c0.136 0.307 0.249 0.562 0.481 0.782" stroke-width="0.16"/><path fill="#090909" opacity="1.000000" stroke="none" d="M0.16 15.594c0.439 -0.797 1.109 -0.942 1.898 -0.895 0.743 0.044 1.491 0.006 2.237 0.01 0.571 0.003 0.988 0.336 1.471 0.57 0.619 0.3 1.49 0.208 2.226 0.104 0.813 -0.116 1.599 -0.43 2.391 -0.676 0.207 -0.065 0.459 -0.151 0.578 -0.311 1.11 -1.491 3.363 -1.616 4.855 -0.821 0.793 0.422 1.526 0.955 2.303 1.409 0.177 0.104 0.463 0.191 0.628 0.12 1.494 -0.646 3.027 -0.381 4.542 -0.182 0.281 0.037 0.509 0.476 0.817 0.744 0.055 0.5 0.055 0.985 -0.008 1.558 -0.113 0.21 -0.196 0.328 -0.208 0.452 -0.127 1.371 -0.206 2.748 -0.379 4.113 -0.07 0.553 -0.237 1.149 -0.544 1.601 -0.36 0.53 -3.683 0.451 -4.163 -0.008 -0.019 -0.018 -0.034 -0.045 -0.056 -0.056 -0.328 -0.167 -0.657 -0.331 -0.832 -0.42 -0.346 0.69 -0.474 1.444 -0.861 1.618 -0.97 0.437 -2.058 0.613 -3.1 0.89 -0.179 0.048 -0.363 0.077 -0.544 0.118 -0.57 0.131 -1.141 0.258 -1.709 0.398 -0.382 0.094 -0.76 0.206 -1.14 0.31 -0.274 0 -0.549 0 -0.888 -0.058 -0.493 -0.43 -0.984 -0.752 -1.332 -1.187 -0.376 -0.469 -0.661 -1.026 -0.907 -1.58 -0.326 -0.733 -0.795 -1.077 -1.63 -0.793 -0.225 0.804 -0.774 1.157 -1.645 1.083 -0.554 -0.047 -1.121 -0.059 -1.673 -0.001 -1.201 0.126 -1.547 -0.36 -1.687 -1.482 -0.16 -1.287 -0.215 -2.587 -0.348 -3.878C0.418 18.037 0.26 17.741 0.16 17.44zm13.758 1.768c-0.602 -0.727 -0.749 -0.696 -1.538 -0.083 -0.656 0.509 -1.356 1.001 -2.112 1.329 -0.561 0.243 -1.138 -0.041 -1.504 -0.592 -0.366 -0.552 -0.021 -0.938 0.305 -1.331 0.374 -0.451 0.746 -0.904 1.264 -1.532l-4.464 1.118v5.822c1.156 -0.355 1.615 0.331 2.025 1.177 0.311 0.64 0.688 1.258 1.106 1.835 0.512 0.707 1.038 0.768 1.844 0.32 -0.071 -0.717 -0.934 -1.21 -0.661 -2.261 0.281 0.456 0.454 0.716 0.605 0.988 0.166 0.299 0.296 0.619 0.472 0.912 0.28 0.467 1.036 0.585 1.549 0.287 0.673 -0.389 0.189 -0.751 -0.022 -1.101 -0.23 -0.384 -0.517 -0.736 -0.743 -1.122 -0.113 -0.194 -0.146 -0.434 -0.216 -0.653l0.257 -0.137c0.426 0.641 0.863 1.275 1.274 1.926 0.564 0.894 1.139 0.919 1.8 0.084 -0.308 -0.961 -1.123 -1.705 -1.079 -2.803 0.528 0.688 0.939 1.434 1.328 2.191 0.278 0.542 0.635 0.841 1.254 0.508 0.52 -0.28 0.621 -0.842 0.289 -1.435 -0.996 -1.779 -1.984 -3.563 -3.034 -5.446M11.781 14.242c-0.802 0.954 -1.586 1.925 -2.414 2.857 -0.478 0.538 -0.183 0.853 0.29 0.997 0.313 0.095 0.757 0.037 1.046 -0.125 0.502 -0.281 0.946 -0.676 1.385 -1.056 1.097 -0.952 1.658 -0.868 2.358 0.391 0.822 1.478 1.669 2.944 2.44 4.449 0.34 0.663 0.752 0.901 1.509 0.632 0 -2.107 0.005 -4.235 -0.011 -6.362 -0.001 -0.147 -0.131 -0.345 -0.26 -0.43 -0.84 -0.554 -1.656 -1.166 -2.556 -1.601 -1.226 -0.593 -2.498 -0.613 -3.787 0.249m-8.96 8.967c0.505 0 1.011 -0.016 1.515 0.004 0.62 0.025 0.969 -0.24 0.975 -0.871 0.02 -2.126 0.036 -4.252 0.039 -6.378 0.001 -0.504 -0.262 -0.781 -0.797 -0.776 -1.037 0.008 -2.074 0.002 -3.111 0.002 -0.557 0 -0.779 0.365 -0.74 0.829a229.76 229.76 0 0 0 0.567 5.93c0.139 1.268 0.168 1.265 1.551 1.26m18.575 -2.413c-0.255 -0.022 -0.534 -0.11 -0.756 -0.034 -0.096 0.033 -0.151 0.434 -0.083 0.614 0.05 0.132 0.451 0.285 0.487 0.244 0.178 -0.201 0.286 -0.464 0.352 -0.824" stroke-width="0.16"/><path fill="#060606" opacity="1.000000" stroke="none" d="M12.267 0.16c1.17 0.919 2.272 1.856 3.408 2.752 1.498 1.181 3.033 2.317 4.53 3.5 0.45 0.356 0.769 0.835 0.496 1.455 -0.312 0.707 -0.902 0.81 -1.637 0.609v4.746l-0.235 0.058c-0.077 -0.255 -0.217 -0.509 -0.221 -0.765 -0.023 -1.305 0.008 -2.612 -0.027 -3.917 -0.007 -0.275 -0.136 -0.642 -0.338 -0.803 -1.989 -1.583 -4.006 -3.132 -6.043 -4.712 -2.133 1.606 -4.256 3.19 -6.35 4.811 -0.174 0.135 -0.215 0.517 -0.218 0.786 -0.02 1.54 -0.01 3.08 -0.01 4.621l-0.27 0.063c-0.073 -0.211 -0.206 -0.422 -0.209 -0.634 -0.019 -1.383 -0.01 -2.767 -0.01 -4.21 -0.118 -0.013 -0.213 -0.042 -0.304 -0.031 -0.603 0.074 -1.172 -0.141 -1.224 -0.723 -0.04 -0.44 0.211 -1.076 0.553 -1.353 2.432 -1.969 4.921 -3.868 7.39 -5.791a3.264 3.264 0 0 0 0.442 -0.409C12.071 0.16 12.142 0.16 12.267 0.16" stroke-width="0.16"/><path fill="#F3F3F3" opacity="1.000000" stroke="none" d="M10.635 26.24a13.12 13.12 0 0 1 1.065 -0.31c0.568 -0.14 1.139 -0.267 1.709 -0.398 0.181 -0.042 0.365 -0.071 0.544 -0.118 1.042 -0.277 2.13 -0.453 3.1 -0.89 0.388 -0.175 0.515 -0.928 0.862 -1.618 0.175 0.088 0.504 0.253 0.832 0.42 0.022 0.011 0.037 0.038 0.056 0.056 0.48 0.459 3.803 0.538 4.163 0.008 0.307 -0.452 0.473 -1.048 0.544 -1.601 0.173 -1.365 0.252 -2.742 0.379 -4.113 0.012 -0.125 0.095 -0.243 0.208 -0.38C24.16 20.257 24.16 23.235 24.16 26.24z" stroke-width="0.16"/><path fill="#F4F4F4" opacity="1.000000" stroke="none" d="M0.16 17.515c0.1 0.226 0.258 0.522 0.29 0.83 0.133 1.291 0.188 2.591 0.348 3.878 0.139 1.122 0.485 1.608 1.687 1.482 0.552 -0.058 1.118 -0.046 1.673 0 0.871 0.074 1.42 -0.278 1.645 -1.083 0.835 -0.284 1.304 0.061 1.63 0.794 0.246 0.553 0.532 1.11 0.907 1.579 0.349 0.436 0.839 0.757 1.264 1.187C6.466 26.24 3.331 26.24 0.16 26.24z" stroke-width="0.16"/><path fill="#1E1E1E" opacity="1.000000" stroke="none" d="M12.364 8.736c-0.143 -0.011 -0.286 -0.022 -0.48 -0.084 0.009 -0.386 0.07 -0.72 0.133 -1.068h-1.428v1.132l-0.298 -2.526h3.637c0 0.751 0.014 1.487 -0.017 2.221 -0.004 0.1 -0.238 0.189 -0.42 0.228 0.042 -0.375 0.137 -0.695 0.26 -1.105 -0.388 0 -0.597 -0.006 -0.807 0.002 -0.203 0.007 -0.406 0.028 -0.668 0.047zm1.31 -1.797c-0.113 -1.189 -0.936 -0.197 -1.393 -0.622 0.024 0.439 0.038 0.696 0.061 1.124 0.49 -0.13 0.908 -0.24 1.332 -0.502m-2.87 -0.53 -0.183 0.882h1.318v-0.89c-0.358 0 -0.669 0 -1.134 0.007" stroke-width="0.16"/><path fill="#141414" opacity="1.000000" stroke="none" d="M13.857 11.544c-0.172 -0.237 -0.285 -0.492 -0.422 -0.799h-2.835l-0.248 1.242 -0.254 -0.047v-1.664h3.886c-0.022 0.412 -0.045 0.831 -0.127 1.267" stroke-width="0.16"/><path fill="#E7E7E7" opacity="1.000000" stroke="none" d="M10.635 8.749c-0.047 -0.393 -0.047 -0.754 -0.047 -1.165h1.428c-0.063 0.348 -0.124 0.683 -0.203 1.086 -0.39 0.083 -0.761 0.097 -1.179 0.079" stroke-width="0.16"/><path fill="#E7E7E7" opacity="1.000000" stroke="none" d="M12.41 8.763c-0.074 -0.394 -0.102 -0.76 -0.135 -1.179 0.262 -0.019 0.465 -0.04 0.668 -0.047 0.209 -0.008 0.419 -0.002 0.806 -0.002 -0.122 0.409 -0.218 0.729 -0.333 1.122 -0.333 0.092 -0.647 0.112 -1.007 0.105" stroke-width="0.16"/><path fill="#F2F2F2" opacity="1.000000" stroke="none" d="M13.948 17.412c1.021 1.833 2.008 3.616 3.004 5.395 0.332 0.594 0.231 1.156 -0.289 1.435 -0.619 0.333 -0.976 0.034 -1.254 -0.508 -0.389 -0.757 -0.8 -1.502 -1.328 -2.191 -0.044 1.098 0.771 1.842 1.079 2.803 -0.66 0.835 -1.235 0.81 -1.8 -0.084 -0.411 -0.651 -0.848 -1.284 -1.274 -1.926l-0.257 0.137c0.07 0.219 0.103 0.459 0.216 0.653 0.226 0.387 0.512 0.738 0.743 1.123 0.21 0.351 0.694 0.712 0.022 1.101 -0.514 0.297 -1.27 0.18 -1.549 -0.287 -0.176 -0.293 -0.305 -0.613 -0.472 -0.912 -0.151 -0.272 -0.324 -0.532 -0.605 -0.988 -0.273 1.051 0.59 1.544 0.66 2.261 -0.805 0.447 -1.331 0.386 -1.843 -0.321 -0.418 -0.577 -0.796 -1.194 -1.106 -1.835 -0.41 -0.846 -0.869 -1.532 -2.026 -1.177v-5.822l4.464 -1.118c-0.518 0.628 -0.89 1.081 -1.264 1.532 -0.326 0.393 -0.671 0.779 -0.305 1.331 0.366 0.551 0.943 0.835 1.504 0.592 0.755 -0.327 1.456 -0.82 2.112 -1.329 0.788 -0.612 0.936 -0.644 1.567 0.134" stroke-width="0.16"/><path fill="#F4F4F4" opacity="1.000000" stroke="none" d="M11.827 14.204c1.243 -0.825 2.515 -0.804 3.741 -0.212 0.9 0.435 1.716 1.047 2.556 1.601 0.129 0.085 0.258 0.283 0.26 0.43 0.017 2.127 0.011 4.255 0.011 6.362 -0.757 0.269 -1.169 0.031 -1.509 -0.632 -0.771 -1.505 -1.618 -2.97 -2.44 -4.449 -0.7 -1.259 -1.261 -1.342 -2.358 -0.391 -0.439 0.381 -0.883 0.776 -1.385 1.056 -0.289 0.162 -0.733 0.22 -1.046 0.125 -0.473 -0.144 -0.768 -0.459 -0.29 -0.997 0.828 -0.932 1.612 -1.902 2.46 -2.895" stroke-width="0.16"/><path fill="#F2F2F2" opacity="1.000000" stroke="none" d="M2.744 23.209c-1.308 0.006 -1.337 0.009 -1.475 -1.259A229.76 229.76 0 0 1 0.702 16.019c-0.039 -0.464 0.184 -0.829 0.74 -0.829 1.037 0 2.074 0.006 3.111 -0.002 0.534 -0.004 0.797 0.272 0.797 0.776a777.44 777.44 0 0 1 -0.039 6.378c-0.006 0.631 -0.355 0.896 -0.975 0.871 -0.504 -0.02 -1.01 -0.004 -1.591 -0.004m0.436 -2.54 -0.294 0.709c0.233 0.02 0.587 0.144 0.677 0.04 0.278 -0.319 0.172 -0.621 -0.383 -0.749" stroke-width="0.16"/><path fill="#F4F4F4" opacity="1.000000" stroke="none" d="M21.43 20.856c-0.099 0.3 -0.208 0.563 -0.386 0.764 -0.036 0.041 -0.437 -0.112 -0.487 -0.244 -0.068 -0.18 -0.013 -0.581 0.083 -0.614 0.222 -0.076 0.5 0.013 0.789 0.094" stroke-width="0.16"/><path fill="#EBEBEB" opacity="1.000000" stroke="none" d="M13.671 7.014c-0.421 0.186 -0.839 0.297 -1.329 0.426l-0.061 -1.124c0.457 0.425 1.28 -0.567 1.39 0.697" stroke-width="0.16"/><path fill="#E6E6E6" opacity="1.000000" stroke="none" d="M10.881 6.406c0.388 -0.004 0.699 -0.004 1.057 -0.004v0.89h-1.318c0.064 -0.306 0.124 -0.594 0.26 -0.886" stroke-width="0.16"/><path fill="#202020" opacity="1.000000" stroke="none" d="M3.241 20.667c0.496 0.13 0.601 0.432 0.323 0.751 -0.091 0.104 -0.444 -0.02 -0.678 -0.04 0.098 -0.236 0.196 -0.473 0.354 -0.712" stroke-width="0.16"/></svg>